<mxfile host="app.diagrams.net" agent="Mozilla/5.0 (Windows NT 10.0; Win64; x64) AppleWebKit/537.36 (KHTML, like Gecko) Chrome/128.0.0.0 Safari/537.36" version="24.7.14">
  <diagram name="Page-1" id="e7e014a7-5840-1c2e-5031-d8a46d1fe8dd">
    <mxGraphModel dx="1050" dy="565" grid="1" gridSize="10" guides="1" tooltips="1" connect="1" arrows="1" fold="1" page="1" pageScale="1" pageWidth="1169" pageHeight="826" background="none" math="0" shadow="0">
      <root>
        <mxCell id="0" />
        <mxCell id="1" parent="0" />
        <mxCell id="2" value="Persoon" style="swimlane;whiteSpace=wrap;startSize=23;swimlaneLine=1;" parent="1" vertex="1">
          <mxGeometry x="40" y="40" width="280" height="570" as="geometry">
            <mxRectangle x="164.5" y="128" width="90" height="30" as="alternateBounds" />
          </mxGeometry>
        </mxCell>
        <mxCell id="A3bPok-PPk1_AjWag2SS-59" style="edgeStyle=orthogonalEdgeStyle;rounded=0;orthogonalLoop=1;jettySize=auto;html=1;entryX=0.5;entryY=0;entryDx=0;entryDy=0;" edge="1" parent="2" source="5" target="7">
          <mxGeometry relative="1" as="geometry" />
        </mxCell>
        <mxCell id="5" value="" style="ellipse;shape=startState;fillColor=#000000;strokeColor=none;" parent="2" vertex="1">
          <mxGeometry x="125" y="40" width="30" height="30" as="geometry" />
        </mxCell>
        <mxCell id="A3bPok-PPk1_AjWag2SS-46" value="" style="edgeStyle=orthogonalEdgeStyle;rounded=0;orthogonalLoop=1;jettySize=auto;html=1;" edge="1" parent="2" source="7" target="8">
          <mxGeometry relative="1" as="geometry" />
        </mxCell>
        <mxCell id="7" value="Stap in auto" style="" parent="2" vertex="1">
          <mxGeometry x="80" y="100" width="120" height="40" as="geometry" />
        </mxCell>
        <mxCell id="A3bPok-PPk1_AjWag2SS-61" style="edgeStyle=orthogonalEdgeStyle;rounded=0;orthogonalLoop=1;jettySize=auto;html=1;entryX=0.5;entryY=0;entryDx=0;entryDy=0;" edge="1" parent="2" source="8" target="A3bPok-PPk1_AjWag2SS-41">
          <mxGeometry relative="1" as="geometry" />
        </mxCell>
        <mxCell id="8" value="Rij naar werk" style="" parent="2" vertex="1">
          <mxGeometry x="80" y="182" width="120" height="40" as="geometry" />
        </mxCell>
        <mxCell id="A3bPok-PPk1_AjWag2SS-51" style="edgeStyle=orthogonalEdgeStyle;rounded=0;orthogonalLoop=1;jettySize=auto;html=1;" edge="1" parent="2" source="A3bPok-PPk1_AjWag2SS-41" target="A3bPok-PPk1_AjWag2SS-49">
          <mxGeometry relative="1" as="geometry" />
        </mxCell>
        <mxCell id="A3bPok-PPk1_AjWag2SS-55" style="edgeStyle=orthogonalEdgeStyle;rounded=0;orthogonalLoop=1;jettySize=auto;html=1;entryX=1;entryY=0.5;entryDx=0;entryDy=0;exitX=1;exitY=0.5;exitDx=0;exitDy=0;" edge="1" parent="2" source="A3bPok-PPk1_AjWag2SS-41" target="A3bPok-PPk1_AjWag2SS-50">
          <mxGeometry relative="1" as="geometry">
            <Array as="points">
              <mxPoint x="226" y="280" />
              <mxPoint x="226" y="462" />
            </Array>
          </mxGeometry>
        </mxCell>
        <mxCell id="A3bPok-PPk1_AjWag2SS-41" value="File &#xa;onderweg" style="rhombus;fillColor=default;strokeColor=default;" vertex="1" parent="2">
          <mxGeometry x="96.25" y="250" width="87.5" height="60" as="geometry" />
        </mxCell>
        <mxCell id="A3bPok-PPk1_AjWag2SS-52" style="edgeStyle=orthogonalEdgeStyle;rounded=0;orthogonalLoop=1;jettySize=auto;html=1;entryX=0.5;entryY=0;entryDx=0;entryDy=0;" edge="1" parent="2" source="A3bPok-PPk1_AjWag2SS-49" target="A3bPok-PPk1_AjWag2SS-50">
          <mxGeometry relative="1" as="geometry" />
        </mxCell>
        <mxCell id="A3bPok-PPk1_AjWag2SS-49" value="Koffie in kantine" style="" vertex="1" parent="2">
          <mxGeometry x="80" y="362" width="120" height="40" as="geometry" />
        </mxCell>
        <mxCell id="A3bPok-PPk1_AjWag2SS-54" style="edgeStyle=orthogonalEdgeStyle;rounded=0;orthogonalLoop=1;jettySize=auto;html=1;entryX=0.5;entryY=0;entryDx=0;entryDy=0;" edge="1" parent="2" source="A3bPok-PPk1_AjWag2SS-50" target="A3bPok-PPk1_AjWag2SS-53">
          <mxGeometry relative="1" as="geometry" />
        </mxCell>
        <mxCell id="A3bPok-PPk1_AjWag2SS-50" value="Kop koffie mee &#xa;naar bureau" style="" vertex="1" parent="2">
          <mxGeometry x="80" y="442" width="120" height="40" as="geometry" />
        </mxCell>
        <mxCell id="A3bPok-PPk1_AjWag2SS-53" value="" style="ellipse;shape=startState;fillColor=#000000;strokeColor=none;" vertex="1" parent="2">
          <mxGeometry x="125" y="512" width="30" height="30" as="geometry" />
        </mxCell>
        <mxCell id="A3bPok-PPk1_AjWag2SS-57" value="Ja" style="text;html=1;align=center;verticalAlign=middle;whiteSpace=wrap;rounded=0;" vertex="1" parent="2">
          <mxGeometry x="170" y="250" width="60" height="30" as="geometry" />
        </mxCell>
        <mxCell id="A3bPok-PPk1_AjWag2SS-58" value="Nee" style="text;html=1;align=center;verticalAlign=middle;whiteSpace=wrap;rounded=0;" vertex="1" parent="2">
          <mxGeometry x="90" y="320" width="60" height="30" as="geometry" />
        </mxCell>
      </root>
    </mxGraphModel>
  </diagram>
</mxfile>
